<svg width="362" height="130" viewBox="0 0 362 130" fill="none" xmlns="http://www.w3.org/2000/svg">
<path d="M24.3892 129.657C20.9221 129.657 18.1126 128.88 15.9606 127.326C13.8086 125.652 12.5533 123.5 12.1946 120.87C11.8359 118.24 12.5533 115.311 14.3466 112.083L17.4407 106.344L66.1736 15.9606V24.5685H12.0153C8.06995 24.5685 5.08108 23.6121 3.04865 21.6992C1.01622 19.6668 0 16.7975 0 13.0913C0 9.38505 1.01622 6.57552 3.04865 4.66264C5.08108 2.63021 8.06995 1.61399 12.0153 1.61399H80.3408C84.1666 1.61399 87.275 2.63021 89.6661 4.66264C92.1768 6.69508 93.4321 9.56439 93.4321 13.2706C93.4321 16.4986 92.9539 19.3081 91.9974 21.6992C91.1606 24.0903 90.0248 26.6607 88.5901 29.4105L76.1285 52.903L64.523 74.7815L40.1704 120.691C38.4967 123.799 36.4044 126.071 33.8938 127.505C31.3831 128.94 28.2149 129.657 24.3892 129.657Z" fill="url(#paint0_linear_2401_2)"/>
<path fill-rule="evenodd" clip-rule="evenodd" d="M133.407 128.043C128.744 128.043 125.157 126.788 122.647 124.277C120.136 121.767 118.881 118.18 118.881 113.517V106.344H145.422H195.994C199.58 106.344 202.27 107.3 204.064 109.213C205.977 111.007 206.933 113.637 206.933 117.104C206.933 120.691 205.977 123.44 204.064 125.353C202.398 127.019 199.958 127.911 196.745 128.03C196.499 128.039 196.249 128.043 195.994 128.043H133.407ZM145.422 74.7815H118.881V52.903H145.422H191.869C195.575 52.903 198.325 53.8594 200.118 55.7723C202.031 57.5656 202.988 60.2556 202.988 63.8423C202.988 67.4289 202.031 70.1787 200.118 72.0916C198.325 73.8849 195.575 74.7815 191.869 74.7815H145.422ZM118.881 23.3132H145.422H195.994C199.58 23.3132 202.27 22.4165 204.064 20.6232C205.977 18.7103 206.933 15.9606 206.933 12.3739C206.933 8.90684 205.977 6.27663 204.064 4.48331C202.27 2.57043 199.58 1.61399 195.994 1.61399H133.407C128.744 1.61399 125.157 2.86932 122.647 5.37997C120.136 7.89062 118.881 11.4773 118.881 16.1399V23.3132Z" fill="url(#paint1_linear_2401_2)"/>
<path d="M195.994 106.344C199.58 106.344 202.27 107.3 204.064 109.213C205.977 111.007 206.933 113.637 206.933 117.104C206.933 120.691 205.977 123.44 204.064 125.353C202.398 127.019 199.958 127.911 196.745 128.03L238.562 127.273C236.568 125.725 235.276 123.65 234.685 121.049C234.206 118.419 234.744 115.49 236.299 112.262L238.999 106.344H195.994Z" fill="url(#paint2_linear_2401_2)"/>
<path fill-rule="evenodd" clip-rule="evenodd" d="M238.63 127.326C240.448 127.239 243.677 127.12 247.025 127.12C248.153 127.12 249.097 127.138 249.942 127.154C251.962 127.192 253.418 127.22 255.487 126.967C257.52 125.054 259.433 122.006 261.226 117.821L268.533 100.605L274.825 85.8568L274.855 85.9001L277.79 78.9062L297.81 31.2038H298.168L318.344 78.9062L321.302 85.9001L321.333 85.8549L324.367 92.905L324.351 92.8941L327.679 100.605L335.111 117.821C336.784 121.886 338.697 124.875 340.849 126.788C343.121 128.701 346.289 129.657 350.354 129.657C353.582 129.657 356.212 128.94 358.245 127.505C360.277 125.951 361.473 123.859 361.831 121.229C362.309 118.479 361.771 115.49 360.217 112.262L313.95 11.6566C312.156 7.59173 309.944 4.66264 307.314 2.86932C304.684 0.95644 301.635 0 298.168 0C294.701 0 291.653 0.95644 289.022 2.86932C286.392 4.66264 284.121 7.59173 282.208 11.6566L238.999 106.344L236.299 112.262C234.744 115.49 234.206 118.419 234.685 121.049C235.276 123.65 236.568 125.725 238.562 127.273C238.584 127.291 238.607 127.308 238.63 127.326Z" fill="url(#paint3_linear_2401_2)"/>
<defs>
<linearGradient id="paint0_linear_2401_2" x1="0.590518" y1="4.75233" x2="334.597" y2="103.833" gradientUnits="userSpaceOnUse">
<stop stop-color="#F36867"/>
<stop offset="0.53125" stop-color="#AF37DE"/>
<stop offset="1" stop-color="#4B63F6"/>
</linearGradient>
<linearGradient id="paint1_linear_2401_2" x1="0.590518" y1="4.75233" x2="334.597" y2="103.833" gradientUnits="userSpaceOnUse">
<stop stop-color="#F36867"/>
<stop offset="0.53125" stop-color="#AF37DE"/>
<stop offset="1" stop-color="#4B63F6"/>
</linearGradient>
<linearGradient id="paint2_linear_2401_2" x1="0.590518" y1="4.75233" x2="334.597" y2="103.833" gradientUnits="userSpaceOnUse">
<stop stop-color="#F36867"/>
<stop offset="0.53125" stop-color="#AF37DE"/>
<stop offset="1" stop-color="#4B63F6"/>
</linearGradient>
<linearGradient id="paint3_linear_2401_2" x1="0.590518" y1="4.75233" x2="334.597" y2="103.833" gradientUnits="userSpaceOnUse">
<stop stop-color="#F36867"/>
<stop offset="0.53125" stop-color="#AF37DE"/>
<stop offset="1" stop-color="#4B63F6"/>
</linearGradient>
</defs>
</svg>
