<svg width="512" height="512" viewBox="0 0 512 512" fill="none" xmlns="http://www.w3.org/2000/svg">
  <defs>
    <linearGradient id="g" x1="64" y1="64" x2="448" y2="448" gradientUnits="userSpaceOnUse">
      <stop stop-color="#F36867"/>
      <stop offset="0.53125" stop-color="#AF37DE"/>
      <stop offset="1" stop-color="#4B63F6"/>
    </linearGradient>
  </defs>
  <rect width="512" height="512" rx="112" fill="url(#g)"/>
  <g transform="translate(166,128) scale(1.97)" fill="#ffffff">
    <path d="M24.3892 129.657C20.9221 129.657 18.1126 128.88 15.9606 127.326C13.8086 125.652 12.5533 123.5 12.1946 120.87C11.8359 118.24 12.5533 115.311 14.3466 112.083L17.4407 106.344L66.1736 15.9606V24.5685H12.0153C8.06995 24.5685 5.08108 23.6121 3.04865 21.6992C1.01622 19.6668 0 16.7975 0 13.0913C0 9.38505 1.01622 6.57552 3.04865 4.66264C5.08108 2.63021 8.06995 1.61399 12.0153 1.61399H80.3408C84.1666 1.61399 87.275 2.63021 89.6661 4.66264C92.1768 6.69508 93.4321 9.56439 93.4321 13.2706C93.4321 16.4986 92.9539 19.3081 91.9974 21.6992C91.1606 24.0903 90.0248 26.6607 88.5901 29.4105L76.1285 52.903L64.523 74.7815L40.1704 120.691C38.4967 123.799 36.4044 126.071 33.8938 127.505C31.3831 128.94 28.2149 129.657 24.3892 129.657Z"/>
  </g>
</svg>
